<svg xmlns="http://www.w3.org/2000/svg" viewBox="0 0 1000 760" role="img" aria-labelledby="title desc">
  <title id="title">Lucky 7 Transport</title>
  <desc id="desc">Clean recreated Lucky 7 Transport clover badge logo.</desc>
  <defs>
    <filter id="drop" x="-12%" y="-12%" width="124%" height="124%">
      <feDropShadow dx="0" dy="12" stdDeviation="11" flood-color="#000" flood-opacity=".42"/>
    </filter>
    <linearGradient id="leaf" x1="170" y1="86" x2="830" y2="690" gradientUnits="userSpaceOnUse">
      <stop offset="0" stop-color="#71eb78"/>
      <stop offset=".5" stop-color="#36ba54"/>
      <stop offset="1" stop-color="#16863a"/>
    </linearGradient>
    <linearGradient id="leafDark" x1="185" y1="135" x2="780" y2="665" gradientUnits="userSpaceOnUse">
      <stop offset="0" stop-color="#28a94a"/>
      <stop offset="1" stop-color="#0e6e31"/>
    </linearGradient>
    <linearGradient id="whiteMetal" x1="0" y1="170" x2="0" y2="520" gradientUnits="userSpaceOnUse">
      <stop offset="0" stop-color="#fff"/>
      <stop offset=".55" stop-color="#f3f4ee"/>
      <stop offset="1" stop-color="#cfd5ce"/>
    </linearGradient>
    <linearGradient id="redSeven" x1="405" y1="292" x2="580" y2="645" gradientUnits="userSpaceOnUse">
      <stop offset="0" stop-color="#ff202f"/>
      <stop offset=".52" stop-color="#d41426"/>
      <stop offset="1" stop-color="#9a111a"/>
    </linearGradient>
    <pattern id="leafVeins" width="112" height="112" patternUnits="userSpaceOnUse" patternTransform="rotate(-2)">
      <path d="M-10 56c36-34 76-34 112 0m-112 4c36 34 76 34 112 0" fill="none" stroke="#0a662e" stroke-width="3" opacity=".36"/>
    </pattern>
  </defs>

  <g filter="url(#drop)">
    <path d="M496 73c60-45 140-36 197 24 62-13 126 18 151 73 32 70 4 143-53 179 61 43 78 124 34 190-45 68-135 86-210 43-4 69-48 129-114 151-78 25-158-15-190-85-73 2-134-47-147-117-13-72 23-137 84-168-58-26-88-87-72-149 18-71 90-111 166-91 31-48 91-73 154-50Z" fill="url(#leaf)" stroke="#070907" stroke-width="22" stroke-linejoin="round"/>
    <path d="M496 73c60-45 140-36 197 24 62-13 126 18 151 73 32 70 4 143-53 179 61 43 78 124 34 190-45 68-135 86-210 43-4 69-48 129-114 151-78 25-158-15-190-85-73 2-134-47-147-117-13-72 23-137 84-168-58-26-88-87-72-149 18-71 90-111 166-91 31-48 91-73 154-50Z" fill="url(#leafVeins)" opacity=".86"/>
    <path d="M614 548c26 52 64 88 113 106 18 7 27 26 20 43-8 19-29 28-48 20-62-25-110-71-143-138Z" fill="url(#leafDark)" stroke="#070907" stroke-width="18" stroke-linejoin="round"/>

    <path d="M91 292h260l77 85H170Z" fill="none" stroke="#070907" stroke-width="25" stroke-linejoin="round"/>
    <path d="M909 292H649l-77 85h258Z" fill="none" stroke="#070907" stroke-width="25" stroke-linejoin="round"/>
    <path d="M251 370h498L500 628Z" fill="none" stroke="#070907" stroke-width="25" stroke-linejoin="round"/>

    <path d="M421 334c8-47 23-66 54-68 68-5 151 7 203 33 15 8 18 28 5 38l-100 73c-35 26-55 68-65 133-4 25 7 36 39 36h30c26 0 37 31 14 43-50 24-102 35-158 32-40-2-60-20-61-55-1-79 28-152 88-217l-83 39c-25 12-46-12-41-40Z" fill="url(#redSeven)" stroke="#070907" stroke-width="30" stroke-linejoin="round"/>
    <path d="M421 334c8-47 23-66 54-68 68-5 151 7 203 33 15 8 18 28 5 38l-100 73c-35 26-55 68-65 133-4 25 7 36 39 36h30c26 0 37 31 14 43-50 24-102 35-158 32-40-2-60-20-61-55-1-79 28-152 88-217l-83 39c-25 12-46-12-41-40Z" fill="url(#redSeven)" stroke="#fbf5e9" stroke-width="7" stroke-linejoin="round"/>

    <path d="M292 427h183m-213 31h224m-187 31h183M525 427h183m-194 31h224m-204 31h183" fill="none" stroke="#070907" stroke-width="15" stroke-linecap="round"/>

    <text x="503" y="314" text-anchor="middle"
      transform="skewX(-7)"
      font-family="Impact, Arial Black, sans-serif"
      font-size="191" font-weight="900" letter-spacing="-10"
      fill="#f8f8ef" stroke="#070907" stroke-width="39" paint-order="stroke">LUCKY</text>
    <text x="503" y="314" text-anchor="middle"
      transform="skewX(-7)"
      font-family="Impact, Arial Black, sans-serif"
      font-size="191" font-weight="900" letter-spacing="-10"
      fill="#fffef7" stroke="#12a73a" stroke-width="4" paint-order="stroke">LUCKY</text>

    <path d="M248 482h504c25 0 46 20 46 45s-21 45-46 45H248c-25 0-46-20-46-45s21-45 46-45Z" fill="#080908" stroke="#070907" stroke-width="16"/>
    <text x="500" y="501" text-anchor="middle"
      font-family="Arial Black, Impact, sans-serif"
      font-size="69" font-weight="900" letter-spacing="7"
      transform="translate(0 45)"
      fill="#f8f8ef">TRANSPORT</text>
  </g>
</svg>
